<?xml version="1.0" encoding="UTF-8" standalone="no"?>
<svg
   xmlns:dc="http://purl.org/dc/elements/1.1/"
   xmlns:cc="http://creativecommons.org/ns#"
   xmlns:rdf="http://www.w3.org/1999/02/22-rdf-syntax-ns#"
   xmlns:svg="http://www.w3.org/2000/svg"
   xmlns="http://www.w3.org/2000/svg"
   xmlns:sodipodi="http://sodipodi.sourceforge.net/DTD/sodipodi-0.dtd"
   xmlns:inkscape="http://www.inkscape.org/namespaces/inkscape"
   version="1.0"
   width="2.551028in"
   height="2.9530013in"
   viewBox="0 0 183.67402 212.6161"
   preserveAspectRatio="xMidYMid meet"
   id="svg50"
   sodipodi:docname="croppedInu.svg"
   inkscape:version="1.0.2 (e86c870879, 2021-01-15, custom)">
  <metadata
     id="metadata56">
    <rdf:RDF>
      <cc:Work
         rdf:about="">
        <dc:format>image/svg+xml</dc:format>
        <dc:type
           rdf:resource="http://purl.org/dc/dcmitype/StillImage" />
        <dc:title></dc:title>
      </cc:Work>
    </rdf:RDF>
  </metadata>
  <defs
     id="defs54" />
  <sodipodi:namedview
     pagecolor="#ffffff"
     bordercolor="#666666"
     borderopacity="1"
     objecttolerance="10"
     gridtolerance="10"
     guidetolerance="10"
     inkscape:pageopacity="0"
     inkscape:pageshadow="2"
     inkscape:window-width="1920"
     inkscape:window-height="1017"
     id="namedview52"
     showgrid="false"
     inkscape:zoom="1.0183706"
     inkscape:cx="142.50185"
     inkscape:cy="69.138366"
     inkscape:window-x="-8"
     inkscape:window-y="-8"
     inkscape:window-maximized="1"
     inkscape:current-layer="svg50"
     units="in"
     fit-margin-top="0"
     fit-margin-left="0"
     fit-margin-right="0"
     fit-margin-bottom="0" />
  <g
     transform="matrix(0.0988114,0,0,-0.099312,-217.50026,417.19882)"
     fill="#000000"
     stroke="none"
     id="g48">
    <path
       d="m 2393,4168 c -67,-69 -121,-225 -130,-373 -3,-60 -13,-113 -30,-160 -34,-94 -42,-243 -18,-335 22,-84 68,-171 125,-234 46,-50 47,-53 57,-147 6,-54 19,-122 29,-154 14,-44 16,-60 6,-73 -37,-53 -92,-155 -111,-205 -41,-111 -19,-195 58,-218 67,-20 153,10 280,98 l 65,45 70,-20 c 39,-12 90,-24 114,-27 35,-6 43,-11 48,-33 19,-90 60,-178 104,-224 43,-45 50,-48 97,-48 69,0 109,29 150,107 17,34 40,98 49,141 l 18,79 54,11 c 53,11 55,11 75,-16 46,-62 177,-179 230,-205 95,-46 156,-33 195,43 43,86 23,317 -44,515 -19,55 -35,104 -37,109 -1,4 18,14 43,22 105,32 170,126 170,250 0,94 -23,157 -76,210 -47,48 -92,64 -174,64 -75,0 -124,-15 -166,-52 -45,-40 -66,-81 -73,-146 -5,-48 -8,-52 -24,-40 -16,12 -16,16 5,68 17,44 22,80 25,178 2,75 10,148 20,185 23,86 23,291 0,368 -37,122 -92,135 -292,68 l -121,-41 -85,27 c -69,23 -108,28 -219,32 -109,4 -139,9 -155,23 -11,9 -47,35 -80,57 -141,94 -199,106 -252,51 z m 125,-60 c 26,-12 85,-51 131,-86 l 84,-63 71,6 c 89,9 203,-7 305,-42 l 79,-26 94,35 c 51,20 119,42 152,49 70,15 78,9 97,-80 15,-74 6,-272 -15,-330 -12,-33 -14,-63 -10,-125 7,-84 -11,-186 -43,-251 -103,-206 -365,-328 -634,-294 -381,47 -618,330 -544,647 8,35 22,77 31,95 11,19 16,52 15,84 -2,71 14,167 43,253 26,75 69,150 86,150 6,0 32,-10 58,-22 z m 1365,-802 c 99,-41 140,-207 75,-302 -27,-40 -90,-74 -136,-74 -46,0 -40,13 18,39 64,29 104,75 90,102 -15,26 -35,24 -83,-10 -58,-40 -94,-46 -135,-21 -70,43 -91,165 -39,226 42,48 145,68 210,40 z m -345,-235 c 161,-82 269,-263 322,-538 34,-176 24,-297 -25,-309 -55,-14 -195,98 -292,234 -49,68 -73,77 -98,38 -20,-30 -65,-41 -65,-16 0,10 -9,28 -19,41 -16,20 -23,22 -38,13 -14,-9 -19,-30 -25,-105 -11,-163 -72,-299 -133,-299 -59,0 -113,94 -140,245 -20,109 -25,120 -56,120 -19,0 -25,-6 -27,-27 -4,-33 -20,-35 -105,-13 -129,33 -239,117 -296,225 -32,60 -71,192 -71,240 v 27 l 78,-38 c 120,-60 214,-81 367,-82 108,-1 144,2 210,21 121,35 210,86 290,168 39,39 74,72 78,73 4,0 24,-8 45,-18 z M 2530,2561 c 14,-18 46,-50 73,-71 l 47,-38 -49,-36 c -93,-68 -200,-100 -222,-66 -22,36 8,131 71,231 30,46 34,49 44,32 6,-10 22,-34 36,-52 z"
       id="path38" />
    <path
       d="m 2580,3723 c -51,-19 -68,-85 -30,-123 44,-44 120,-8 120,57 0,43 -50,80 -90,66 z"
       id="path40" />
    <path
       d="m 3177,3632 c -25,-28 -22,-87 5,-106 73,-51 160,42 98,104 -26,26 -81,26 -103,2 z"
       id="path42" />
    <path
       d="m 2802,3624 c -50,-12 -48,-71 5,-126 50,-52 123,-44 173,19 28,35 23,74 -11,90 -30,14 -131,24 -167,17 z"
       id="path44" />
    <path
       d="m 2662,3478 c -19,-19 -14,-44 13,-77 31,-36 77,-53 142,-51 26,1 67,-4 90,-11 32,-10 50,-10 81,-1 79,24 115,77 71,105 -11,7 -27,2 -58,-19 l -43,-28 -49,17 c -35,13 -63,16 -98,11 -47,-6 -51,-5 -85,30 -40,39 -46,42 -64,24 z"
       id="path46" />
  </g>
</svg>
